<svg width="1010" height="1010" viewBox="0 0 1010 1010" fill="none" xmlns="http://www.w3.org/2000/svg">
<path fill-rule="evenodd" clip-rule="evenodd" d="M1010 505C1010 783.904 783.904 1010 505 1010C226.096 1010 0 783.904 0 505C0 226.096 226.096 0 505 0C783.904 0 1010 226.096 1010 505ZM872.421 708C801.317 839.326 663.161 928.409 504.382 928.409C395.056 928.409 295.508 886.176 220.892 817H722C733.71 817 744.48 810.61 750.09 800.33C752.844 795.287 754.188 789.596 753.983 783.854C753.777 778.113 752.028 772.532 748.92 767.7L710.541 708H872.421ZM915.268 589.241L671.92 210.7C666.03 201.54 655.89 196 645 196C634.11 196 623.97 201.54 618.08 210.7L504.464 387.435L460.92 319.7C455.03 310.54 444.89 305 434 305C423.11 305 412.97 310.54 407.08 319.7L146.289 725.376C107.593 661.337 85.2999 586.104 85.2999 505.618C85.2999 272.117 272.929 82.8274 504.382 82.8274C735.834 82.8274 923.464 272.117 923.464 505.618C923.464 534.246 920.644 562.21 915.268 589.241ZM370 593L376.484 586.516L466.422 446.612L434 396.18L331.94 554.94L370 593ZM645 287.18L730.39 420H645L581 484L542.94 445.94L645 287.18Z" fill="white"/>
</svg>
